<?xml version="1.0" encoding="UTF-8" standalone="no"?>
<!-- Created with Inkscape (http://www.inkscape.org/) -->

<svg
   width="64"
   height="64"
   viewBox="0 0 16.933333 16.933333"
   version="1.1"
   id="svg1"
   xml:space="preserve"
   inkscape:export-filename="icon_stamet.svg"
   inkscape:export-xdpi="96"
   inkscape:export-ydpi="96"
   inkscape:version="1.4.2 (ebf0e940, 2025-05-08)"
   sodipodi:docname="drawing.svg"
   xmlns:inkscape="http://www.inkscape.org/namespaces/inkscape"
   xmlns:sodipodi="http://sodipodi.sourceforge.net/DTD/sodipodi-0.dtd"
   xmlns="http://www.w3.org/2000/svg"
   xmlns:svg="http://www.w3.org/2000/svg"><sodipodi:namedview
     id="namedview1"
     pagecolor="#ffffff"
     bordercolor="#000000"
     borderopacity="0.25"
     inkscape:showpageshadow="2"
     inkscape:pageopacity="0.0"
     inkscape:pagecheckerboard="0"
     inkscape:deskcolor="#d1d1d1"
     inkscape:document-units="mm"
     inkscape:zoom="8.2344211"
     inkscape:cx="37.343244"
     inkscape:cy="29.267388"
     inkscape:window-width="1904"
     inkscape:window-height="951"
     inkscape:window-x="7"
     inkscape:window-y="25"
     inkscape:window-maximized="0"
     inkscape:current-layer="_1826994480" /><defs
     id="defs1"><style
       type="text/css"
       id="style1">
   <![CDATA[
    .fil1 {fill:#0048CC}
    .fil3 {fill:#319900}
    .fil2 {fill:#656565}
    .fil0 {fill:#FEFEFE}
    .fil4 {fill:black;fill-rule:nonzero}
   ]]>
  </style></defs><g
     inkscape:label="Layer 1"
     inkscape:groupmode="layer"
     id="layer1"><g
       style="clip-rule:evenodd;fill-rule:evenodd;image-rendering:optimizeQuality;shape-rendering:geometricPrecision;text-rendering:geometricPrecision"
       id="g1"
       transform="matrix(0.00268114,0,0,0.00268114,2.5505531,1.2750403)"><g
         id="Layer_x0020_1"
         inkscape:label="Layer 1"
         inkscape:groupmode="layer">
  <metadata
   id="CorelCorpID_0Corel-Layer" />
  <g
   id="_1826994480"
   transform="matrix(1.0840412,0,0,1.0840412,-185.15365,-198.51611)">
   
   
   
   
   
   
   
   
   
   <g
   id="g2"
   transform="matrix(1.1274828,0,0,1.1274828,-281.31043,-24.955204)"><circle
     class="fil0"
     cx="2206.3401"
     cy="1928.33"
     r="1928.33"
     id="circle1" /><path
     class="fil1"
     d="m 414.31,1215.07 c 25.91,-65.06 55.33,-128.34 87.9,-189.7 h 697.76 c -45.91,64.39 -85.88,131.15 -117.15,201.38 h -48.39 C 841.36,1081.1 617.39,1114.82 414.31,1215.07 Z"
     id="path1" /><path
     class="fil1"
     d="m 2206.34,0 c 382.36,0 738.72,111.3 1038.47,303.24 l -2078.62,1.08 C 1466.29,111.71 1823.27,0 2206.34,0 Z"
     id="path2" /><path
     class="fil1"
     d="m 3571.46,566.43 c 81.17,81.35 155,169.97 220.68,264.7 H 2180.8 c -248.24,-112.93 -500.87,-109.65 -738.1,0 l -821.41,-1.07 c 66.5,-95.8 141.37,-185.31 223.7,-267.39 z"
     id="path3" /><path
     class="fil1"
     d="m 3910.61,1025.64 c 33.52,63.15 63.73,128.31 90.2,195.38 l -888.69,2.96 C 2934.4,1102.87 2739.86,1107.17 2574.6,1223.7 l -31.89,0.01 c -31.77,-68.31 -69.76,-135.07 -117.67,-197.53 l 1485.57,-0.55 z"
     id="path4" /><path
     class="fil1"
     d="m 4046.28,1349.67 c 14.93,47.52 28.11,95.81 39.38,144.84 l -356.32,1.57 c -145.99,-88.51 -294.08,-106.06 -430,-11 h -7.15 c -9.55,-48.59 -28.62,-94.81 -61.59,-137.57 z"
     id="path5" /><path
     class="fil1"
     d="m 4098.2,1553.83 c 5.32,27 10.16,54.16 14.35,81.55 l -294.11,1.28 c -4.69,-31.35 -17.33,-59.35 -39.62,-83.35 l 319.38,0.53 z"
     id="path6" /><path
     class="fil2"
     d="m 4134.35,1903.24 c 0.11,8.35 0.31,16.7 0.31,25.08 0,13.69 -0.24,27.33 -0.52,40.96 l -3855.61,0.28 c -0.28,-13.72 -0.52,-27.45 -0.52,-41.23 0,-8.2 0.2,-16.35 0.31,-24.52 l 3856.02,-0.56 z"
     id="path7" /><g
     id="g11">
    <path
   class="fil3"
   d="m 316.1,2311.22 c -5.65,-28.06 -10.71,-56.32 -15.13,-84.8 l 927.57,-1.29 c 33.25,24.69 58.82,49.15 76.97,86.09 H 316.09 Z"
   id="path8" />
    <path
   class="fil3"
   d="m 4050.22,2494.18 c -7.95,25.93 -16.47,51.61 -25.48,77.06 l -2460.78,1.09 c -16.81,-18.94 -33.06,-38.46 -48.39,-58.86 l -1147.15,-0.28 c -15.63,-49.16 -29.44,-99.15 -41.15,-149.94 h 1045.88 l 122.07,129.85 2555,1.09 z"
   id="path9" />
    <path
   class="fil3"
   d="m 3999.03,2640.01 c -18.59,46.79 -39.02,92.63 -61.08,137.55 l -2149.93,-1.09 50.6,60.52 -1333.96,-1.08 c -33.92,-63.46 -64.44,-129.01 -91.21,-196.45 z"
   id="path10" />
    <path
   class="fil3"
   d="m 3869.76,2904.11 c -40.1,68.22 -84.29,133.75 -132.2,196.26 l -1628.68,6.78 199.89,197.25 1247.43,0.81 c -102.27,100.29 -215.66,189.25 -338.16,264.91 l -645.06,-0.79 203.91,201.46 c -180.29,55.79 -371.91,85.84 -570.54,85.84 -379,0 -732.45,-109.4 -1030.52,-298.27 l 1377.34,1.61 -244.41,-255.58 -1461.1,-7.81 C 765.47,3214.95 690.62,3125.94 624.12,3030.66 l 1401.17,0.54 -128.11,-128.2 1972.57,1.09 z"
   id="path11" />
   </g></g><path
   class="fil4"
   d="m 804.58502,4622.9269 h 274.77748 c 54.5426,0 94.9936,2.2934 121.7154,6.8932 26.8616,4.7459 50.6989,14.422 71.8043,29.0152 21.1118,14.7396 38.7103,34.2502 52.7827,58.6786 14.0852,24.4282 21.1119,51.9568 21.1119,82.2808 0,32.7891 -8.6341,63.1131 -25.8958,90.4828 -17.2873,27.5412 -40.7943,48.0368 -70.3812,61.8044 41.7534,12.6238 73.7357,33.9261 96.277,64.085 22.395,30.1652 33.5895,65.5718 33.5895,106.3849 0,32.1285 -7.1919,63.2783 -21.7472,93.6023 -14.5552,30.324 -34.3901,54.5934 -59.6632,72.7892 -25.1144,18.024 -56.1309,29.1739 -93.0877,33.4371 -23.0177,2.4585 -78.8436,4.0915 -167.2935,4.7521 H 804.58502 Z M 943.74,4739.9726 v 162.287 h 90.8322 c 53.92,0 87.4905,-0.8258 100.6036,-2.4713 23.6849,-2.7764 42.4014,-11.1436 55.9847,-25.0762 13.5833,-13.9327 20.3177,-32.1284 20.3177,-54.7523 0,-21.7978 -5.9213,-39.3329 -17.5986,-52.9415 -11.6772,-13.6086 -29.1104,-21.7979 -52.1473,-24.587 -13.7485,-1.6328 -53.2401,-2.4524 -118.3353,-2.4524 h -79.65069 z m 0,279.3137 v 188.8436 h 128.5831 c 49.9048,0 81.7345,-1.4802 95.1715,-4.2629 20.6354,-3.9391 37.427,-13.2845 50.3749,-28.2021 12.9479,-15.0826 19.5044,-34.9111 19.5044,-59.9872 0,-21.3151 -4.9491,-39.1868 -15.0317,-53.9327 -9.9048,-14.7522 -24.4663,-25.5719 -43.3354,-32.2934 -18.8819,-6.7282 -59.9747,-10.1717 -123.1512,-10.1717 H 943.73368 Z m 551.9503,307.8462 v -704.2056 h 208.3862 l 123.1638,480.2858 121.7154,-480.2858 h 208.8754 v 704.2056 h -128.5959 l -0.4766,-554.3835 -135.4636,554.3835 h -133.7039 l -134.8285,-554.3835 -0.4828,554.3835 h -128.5833 z m 803.2145,0 v -704.2056 h 139.155 v 311.9439 l 280.3747,-311.9439 h 186.4866 l -259.2756,274.2438 272.7127,429.9618 h -179.4599 l -189.0406,-330.6288 -111.7979,117.6936 v 212.9352 z m 1010.6604,-258.6658 v -119.0151 h 298.4498 v 280.9592 c -28.9518,29.0153 -71.0166,54.4282 -126.1944,76.5502 -55.0255,21.9695 -110.8513,32.9542 -167.4651,32.9542 -71.8042,0 -134.3455,-15.4003 -187.7635,-46.3913 -53.2593,-30.9848 -93.3991,-75.4066 -120.2859,-132.9478 -26.8615,-57.535 -40.2922,-120.3114 -40.2922,-188.0115 0,-73.437 15.0317,-138.6785 44.9428,-195.8894 30.0571,-57.0457 73.8946,-100.9784 131.6263,-131.4612 44.1423,-23.4433 98.8437,-35.0826 164.4155,-35.0826 85.2476,0 151.9504,18.3609 199.9237,55.0891 47.8208,36.8805 78.6913,87.5284 92.4396,152.4394 l -138.1829,26.5629 c -9.5998,-34.5869 -27.8335,-61.9695 -54.5426,-82.1346 -26.5438,-19.9873 -59.8221,-29.9874 -99.803,-29.9874 -60.4511,0 -108.5958,19.6634 -144.263,59.1742 -35.6607,39.4981 -53.5768,98.0241 -53.5768,175.5591 0,83.7547 18.0686,146.5438 54.2123,188.3353 36.3213,41.8043 83.653,62.789 142.3569,62.789 28.939,0 58.056,-5.9085 87.1663,-17.5476 29.2632,-11.6264 54.2123,-25.8959 75.1653,-42.6111 v -89.3392 h -158.3355 z"
   id="path12"
   style="stroke-width:0.635324;fill:#f2f2f2" />
  </g>
 </g></g></g></svg>
