<?xml version="1.0" encoding="UTF-8" standalone="no"?>
<!-- Created with Inkscape (http://www.inkscape.org/) -->

<svg
   width="63.999996"
   height="63.999996"
   viewBox="0 0 16.933332 16.933332"
   version="1.1"
   id="svg1"
   xml:space="preserve"
   sodipodi:docname="icon_stamet.svg"
   inkscape:version="1.4.2 (ebf0e940, 2025-05-08)"
   xmlns:inkscape="http://www.inkscape.org/namespaces/inkscape"
   xmlns:sodipodi="http://sodipodi.sourceforge.net/DTD/sodipodi-0.dtd"
   xmlns="http://www.w3.org/2000/svg"
   xmlns:svg="http://www.w3.org/2000/svg"><sodipodi:namedview
     id="namedview1"
     pagecolor="#ffffff"
     bordercolor="#000000"
     borderopacity="0.25"
     inkscape:showpageshadow="2"
     inkscape:pageopacity="0.0"
     inkscape:pagecheckerboard="0"
     inkscape:deskcolor="#d1d1d1"
     inkscape:document-units="mm"
     inkscape:zoom="6.3828127"
     inkscape:cx="32.117502"
     inkscape:cy="31.960831"
     inkscape:window-width="1904"
     inkscape:window-height="951"
     inkscape:window-x="7"
     inkscape:window-y="25"
     inkscape:window-maximized="0"
     inkscape:current-layer="Layer_x0020_1"><inkscape:page
       x="0"
       y="0"
       width="16.933332"
       height="16.933332"
       id="page2"
       margin="0"
       bleed="0" /></sodipodi:namedview><defs
     id="defs1"><style
       type="text/css"
       id="style1">
   <![CDATA[
    .fil1 {fill:#0048CC}
    .fil3 {fill:#319900}
    .fil2 {fill:#656565}
    .fil0 {fill:#FEFEFE}
    .fil4 {fill:black;fill-rule:nonzero}
   ]]>
  </style></defs><g
     inkscape:label="Layer 1"
     inkscape:groupmode="layer"
     id="layer1"><g
       style="clip-rule:evenodd;fill-rule:evenodd;image-rendering:optimizeQuality;shape-rendering:geometricPrecision;text-rendering:geometricPrecision"
       id="g1"
       transform="matrix(0.00284694,0,0,0.00284694,2.1667266,0.85197683)"><g
         id="Layer_x0020_1"
         inkscape:label="Layer 1"
         inkscape:groupmode="layer">
  <metadata
   id="CorelCorpID_0Corel-Layer" />
  <g
   id="_1826994480"
   transform="matrix(1.4540285,0,0,1.4540285,-1016.0317,-111.15396)">
   <circle
   class="fil0"
   cx="2206.3401"
   cy="1928.33"
   r="1928.33"
   id="circle1" />
   <path
   class="fil1"
   d="m 414.31,1215.07 c 25.91,-65.06 55.33,-128.34 87.9,-189.7 h 697.76 c -45.91,64.39 -85.88,131.15 -117.15,201.38 h -48.39 C 841.36,1081.1 617.39,1114.82 414.31,1215.07 Z"
   id="path1" />
   <path
   class="fil1"
   d="m 2206.34,0 c 382.36,0 738.72,111.3 1038.47,303.24 l -2078.62,1.08 C 1466.29,111.71 1823.27,0 2206.34,0 Z"
   id="path2" />
   <path
   class="fil1"
   d="m 3571.46,566.43 c 81.17,81.35 155,169.97 220.68,264.7 H 2180.8 c -248.24,-112.93 -500.87,-109.65 -738.1,0 l -821.41,-1.07 c 66.5,-95.8 141.37,-185.31 223.7,-267.39 z"
   id="path3" />
   <path
   class="fil1"
   d="m 3910.61,1025.64 c 33.52,63.15 63.73,128.31 90.2,195.38 l -888.69,2.96 C 2934.4,1102.87 2739.86,1107.17 2574.6,1223.7 l -31.89,0.01 c -31.77,-68.31 -69.76,-135.07 -117.67,-197.53 l 1485.57,-0.55 z"
   id="path4" />
   <path
   class="fil1"
   d="m 4046.28,1349.67 c 14.93,47.52 28.11,95.81 39.38,144.84 l -356.32,1.57 c -145.99,-88.51 -294.08,-106.06 -430,-11 h -7.15 c -9.55,-48.59 -28.62,-94.81 -61.59,-137.57 z"
   id="path5" />
   <path
   class="fil1"
   d="m 4098.2,1553.83 c 5.32,27 10.16,54.16 14.35,81.55 l -294.11,1.28 c -4.69,-31.35 -17.33,-59.35 -39.62,-83.35 l 319.38,0.53 z"
   id="path6" />
   <path
   class="fil2"
   d="m 4134.35,1903.24 c 0.11,8.35 0.31,16.7 0.31,25.08 0,13.69 -0.24,27.33 -0.52,40.96 l -3855.61,0.28 c -0.28,-13.72 -0.52,-27.45 -0.52,-41.23 0,-8.2 0.2,-16.35 0.31,-24.52 l 3856.02,-0.56 z"
   id="path7" />
   <g
   id="g11"
   style="display:inline">
    <path
   class="fil3"
   d="m 316.1,2311.22 c -5.65,-28.06 -10.71,-56.32 -15.13,-84.8 l 927.57,-1.29 c 33.25,24.69 58.82,49.15 76.97,86.09 H 316.09 Z"
   id="path8" />
    <path
   class="fil3"
   d="m 4050.22,2494.18 c -7.95,25.93 -16.47,51.61 -25.48,77.06 l -2460.78,1.09 c -16.81,-18.94 -33.06,-38.46 -48.39,-58.86 l -1147.15,-0.28 c -15.63,-49.16 -29.44,-99.15 -41.15,-149.94 h 1045.88 l 122.07,129.85 2555,1.09 z"
   id="path9" />
    <path
   class="fil3"
   d="m 3999.03,2640.01 c -18.59,46.79 -39.02,92.63 -61.08,137.55 l -2149.93,-1.09 50.6,60.52 -1333.96,-1.08 c -33.92,-63.46 -64.44,-129.01 -91.21,-196.45 z"
   id="path10" />
    <path
   class="fil3"
   d="m 3869.76,2904.11 c -40.1,68.22 -84.29,133.75 -132.2,196.26 l -1628.68,6.78 199.89,197.25 1247.43,0.81 c -102.27,100.29 -215.66,189.25 -338.16,264.91 l -645.06,-0.79 203.91,201.46 c -180.29,55.79 -371.91,85.84 -570.54,85.84 -379,0 -732.45,-109.4 -1030.52,-298.27 l 1377.34,1.61 -244.41,-255.58 -1461.1,-7.81 C 765.47,3214.95 690.62,3125.94 624.12,3030.66 l 1401.17,0.54 -128.11,-128.2 1972.57,1.09 z"
   id="path11" />
   </g>
   
  </g>
 </g></g></g></svg>
