<?xml version="1.0" encoding="UTF-8" standalone="no"?>
<!-- Created with Inkscape (http://www.inkscape.org/) -->

<svg
   width="64"
   height="64"
   viewBox="0 0 16.933333 16.933333"
   version="1.1"
   id="svg1"
   xml:space="preserve"
   inkscape:export-filename="icon_stamet.svg"
   inkscape:export-xdpi="96"
   inkscape:export-ydpi="96"
   inkscape:version="1.4.2 (ebf0e940, 2025-05-08)"
   sodipodi:docname="drawing.svg"
   xmlns:inkscape="http://www.inkscape.org/namespaces/inkscape"
   xmlns:sodipodi="http://sodipodi.sourceforge.net/DTD/sodipodi-0.dtd"
   xmlns="http://www.w3.org/2000/svg"
   xmlns:svg="http://www.w3.org/2000/svg"><sodipodi:namedview
     id="namedview1"
     pagecolor="#ffffff"
     bordercolor="#000000"
     borderopacity="0.25"
     inkscape:showpageshadow="2"
     inkscape:pageopacity="0.0"
     inkscape:pagecheckerboard="0"
     inkscape:deskcolor="#d1d1d1"
     inkscape:document-units="mm"
     inkscape:zoom="8.2344211"
     inkscape:cx="37.343244"
     inkscape:cy="29.267388"
     inkscape:window-width="1904"
     inkscape:window-height="951"
     inkscape:window-x="7"
     inkscape:window-y="25"
     inkscape:window-maximized="0"
     inkscape:current-layer="_1826994480" /><defs
     id="defs1"><style
       type="text/css"
       id="style1">
   <![CDATA[
    .fil1 {fill:#0048CC}
    .fil3 {fill:#319900}
    .fil2 {fill:#656565}
    .fil0 {fill:#FEFEFE}
    .fil4 {fill:black;fill-rule:nonzero}
   ]]>
  </style></defs><g
     inkscape:label="Layer 1"
     inkscape:groupmode="layer"
     id="layer1"><g
       style="clip-rule:evenodd;fill-rule:evenodd;image-rendering:optimizeQuality;shape-rendering:geometricPrecision;text-rendering:geometricPrecision"
       id="g1"
       transform="matrix(0.00268114,0,0,0.00268114,2.5505531,1.2750403)"><g
         id="Layer_x0020_1"
         inkscape:label="Layer 1"
         inkscape:groupmode="layer">
  <metadata
   id="CorelCorpID_0Corel-Layer" />
  <g
   id="_1826994480"
   transform="matrix(1.0840412,0,0,1.0840412,-185.15365,-198.51611)">
   
   
   
   
   
   
   
   
   
   <g
   id="g3"
   transform="matrix(1.1274828,0,0,1.1274828,-281.31043,-24.955204)"><g
     id="g2"><circle
       class="fil0"
       cx="2206.3401"
       cy="1928.33"
       r="1928.33"
       id="circle1" /><path
       class="fil1"
       d="m 414.31,1215.07 c 25.91,-65.06 55.33,-128.34 87.9,-189.7 h 697.76 c -45.91,64.39 -85.88,131.15 -117.15,201.38 h -48.39 C 841.36,1081.1 617.39,1114.82 414.31,1215.07 Z"
       id="path1" /><path
       class="fil1"
       d="m 2206.34,0 c 382.36,0 738.72,111.3 1038.47,303.24 l -2078.62,1.08 C 1466.29,111.71 1823.27,0 2206.34,0 Z"
       id="path2" /><path
       class="fil1"
       d="m 3571.46,566.43 c 81.17,81.35 155,169.97 220.68,264.7 H 2180.8 c -248.24,-112.93 -500.87,-109.65 -738.1,0 l -821.41,-1.07 c 66.5,-95.8 141.37,-185.31 223.7,-267.39 z"
       id="path3" /><path
       class="fil1"
       d="m 3910.61,1025.64 c 33.52,63.15 63.73,128.31 90.2,195.38 l -888.69,2.96 C 2934.4,1102.87 2739.86,1107.17 2574.6,1223.7 l -31.89,0.01 c -31.77,-68.31 -69.76,-135.07 -117.67,-197.53 l 1485.57,-0.55 z"
       id="path4" /><path
       class="fil1"
       d="m 4046.28,1349.67 c 14.93,47.52 28.11,95.81 39.38,144.84 l -356.32,1.57 c -145.99,-88.51 -294.08,-106.06 -430,-11 h -7.15 c -9.55,-48.59 -28.62,-94.81 -61.59,-137.57 z"
       id="path5" /><path
       class="fil1"
       d="m 4098.2,1553.83 c 5.32,27 10.16,54.16 14.35,81.55 l -294.11,1.28 c -4.69,-31.35 -17.33,-59.35 -39.62,-83.35 l 319.38,0.53 z"
       id="path6" /><path
       class="fil2"
       d="m 4134.35,1903.24 c 0.11,8.35 0.31,16.7 0.31,25.08 0,13.69 -0.24,27.33 -0.52,40.96 l -3855.61,0.28 c -0.28,-13.72 -0.52,-27.45 -0.52,-41.23 0,-8.2 0.2,-16.35 0.31,-24.52 l 3856.02,-0.56 z"
       id="path7" /><g
       id="g11">
    <path
   class="fil3"
   d="m 316.1,2311.22 c -5.65,-28.06 -10.71,-56.32 -15.13,-84.8 l 927.57,-1.29 c 33.25,24.69 58.82,49.15 76.97,86.09 H 316.09 Z"
   id="path8" />
    <path
   class="fil3"
   d="m 4050.22,2494.18 c -7.95,25.93 -16.47,51.61 -25.48,77.06 l -2460.78,1.09 c -16.81,-18.94 -33.06,-38.46 -48.39,-58.86 l -1147.15,-0.28 c -15.63,-49.16 -29.44,-99.15 -41.15,-149.94 h 1045.88 l 122.07,129.85 2555,1.09 z"
   id="path9" />
    <path
   class="fil3"
   d="m 3999.03,2640.01 c -18.59,46.79 -39.02,92.63 -61.08,137.55 l -2149.93,-1.09 50.6,60.52 -1333.96,-1.08 c -33.92,-63.46 -64.44,-129.01 -91.21,-196.45 z"
   id="path10" />
    <path
   class="fil3"
   d="m 3869.76,2904.11 c -40.1,68.22 -84.29,133.75 -132.2,196.26 l -1628.68,6.78 199.89,197.25 1247.43,0.81 c -102.27,100.29 -215.66,189.25 -338.16,264.91 l -645.06,-0.79 203.91,201.46 c -180.29,55.79 -371.91,85.84 -570.54,85.84 -379,0 -732.45,-109.4 -1030.52,-298.27 l 1377.34,1.61 -244.41,-255.58 -1461.1,-7.81 C 765.47,3214.95 690.62,3125.94 624.12,3030.66 l 1401.17,0.54 -128.11,-128.2 1972.57,1.09 z"
   id="path11" />
   </g></g><path
     class="fil4"
     d="m 963.11487,4122.353 h 243.70883 c 48.3755,0 84.2528,2.0341 107.9532,6.1138 23.8244,4.2093 44.9664,12.7913 63.6855,25.7345 18.7247,13.073 34.3334,30.3776 46.8146,52.0439 12.4926,21.6661 18.7248,46.0821 18.7248,72.9774 0,29.0817 -7.6578,55.977 -22.9678,80.2521 -15.3326,24.4271 -36.1817,42.6053 -62.4233,54.8162 37.0324,11.1965 65.3985,30.0902 85.3911,56.839 19.8629,26.7545 29.7916,58.1577 29.7916,94.3562 0,28.4957 -6.3787,56.1235 -19.2883,83.0188 -12.9094,26.8953 -30.5016,48.4206 -52.9171,64.559 -22.2748,15.9861 -49.7843,25.8753 -82.5624,29.6564 -20.4152,2.1806 -69.9289,3.6289 -148.3779,4.2148 H 963.11487 Z m 123.42093,103.8115 v 143.9375 h 80.5619 c 47.8234,0 77.5981,-0.7325 89.2285,-2.1919 21.0069,-2.4625 37.6072,-9.8836 49.6546,-22.2409 12.0475,-12.3573 18.0204,-28.4957 18.0204,-48.5615 0,-19.3332 -5.2517,-34.8856 -15.6087,-46.9555 -10.3569,-12.0699 -25.8189,-19.3332 -46.2511,-21.807 -12.194,-1.4482 -47.2203,-2.1751 -104.9553,-2.1751 h -70.6447 z m 0,247.7321 v 167.4914 h 114.0444 c 44.2621,0 72.4929,-1.3129 84.4106,-3.7809 18.3022,-3.4937 33.1952,-11.7825 44.6791,-25.0134 11.4839,-13.3772 17.2991,-30.9637 17.2991,-53.2045 0,-18.905 -4.3896,-34.756 -13.3321,-47.8346 -8.7849,-13.0842 -21.7,-22.6805 -38.4356,-28.642 -16.7469,-5.9675 -53.1934,-9.0216 -109.2266,-9.0216 h -99.4445 z m 489.5421,273.0385 V 4122.353 h 184.8243 l 109.2378,425.9806 107.9533,-425.9806 h 185.2581 v 624.5821 h -114.0557 l -0.4227,-491.7002 -120.147,491.7002 h -118.5862 l -119.5836,-491.7002 -0.4282,491.7002 h -114.0446 z m 712.3962,0 V 4122.353 h 123.421 v 276.6729 l 248.6731,-276.6729 h 165.4009 l -229.9597,243.2355 241.8775,381.3466 h -159.1687 l -167.666,-293.2451 -99.1571,104.3862 v 188.8589 z m 896.3866,-229.4188 V 4411.958 h 264.7045 v 249.1916 c -25.6783,25.7346 -62.9869,48.2741 -111.9258,67.8948 -48.8038,19.4854 -98.3175,29.2281 -148.5301,29.2281 -63.6854,0 -119.1552,-13.659 -166.5333,-41.1459 -47.2374,-27.4814 -82.8386,-66.8805 -106.6854,-117.9156 -23.8243,-51.0296 -35.7364,-106.708 -35.7364,-166.7533 0,-65.1336 13.3321,-122.9983 39.8612,-173.7405 26.6586,-50.5956 65.5394,-89.5609 116.7435,-116.5971 39.1512,-20.7926 87.6676,-31.1158 145.8253,-31.1158 75.6088,0 134.7696,16.2848 177.3186,48.8602 42.4138,32.7105 69.7938,77.6317 81.9876,135.2033 l -122.5588,23.5595 c -8.5143,-30.6762 -24.6864,-54.9627 -48.3755,-72.8478 -23.5425,-17.7273 -53.0581,-26.5967 -88.5184,-26.5967 -53.616,0 -96.3171,17.4401 -127.9514,52.4834 -31.6286,35.0321 -47.519,86.9407 -47.519,155.7089 0,74.2847 16.0256,129.9743 48.0826,167.0405 32.2145,37.0776 74.1945,55.6896 126.2608,55.6896 25.6669,0 51.4917,-5.2405 77.3106,-15.5635 25.9544,-10.3119 48.0826,-22.9679 66.6664,-37.7932 v -79.2377 H 3184.855 Z"
     id="path12"
     style="stroke-width:0.563489" /></g>
  </g>
 </g></g></g></svg>
