<?xml version="1.0" encoding="UTF-8" standalone="no"?>
<!-- Created with Inkscape (http://www.inkscape.org/) -->

<svg
   width="800"
   height="800"
   viewBox="0 0 211.66666 211.66667"
   version="1.1"
   id="svg1"
   inkscape:version="1.4.2 (ebf0e940, 2025-05-08)"
   sodipodi:docname="logo-bmkg.svg"
   xmlns:inkscape="http://www.inkscape.org/namespaces/inkscape"
   xmlns:sodipodi="http://sodipodi.sourceforge.net/DTD/sodipodi-0.dtd"
   xmlns="http://www.w3.org/2000/svg"
   xmlns:svg="http://www.w3.org/2000/svg">
  <sodipodi:namedview
     id="namedview1"
     pagecolor="#ffffff"
     bordercolor="#000000"
     borderopacity="0.25"
     inkscape:showpageshadow="2"
     inkscape:pageopacity="0.0"
     inkscape:pagecheckerboard="0"
     inkscape:deskcolor="#d1d1d1"
     inkscape:document-units="mm"
     inkscape:zoom="0.72782688"
     inkscape:cx="397.07245"
     inkscape:cy="450.65662"
     inkscape:window-width="1904"
     inkscape:window-height="951"
     inkscape:window-x="7"
     inkscape:window-y="33"
     inkscape:window-maximized="0"
     inkscape:current-layer="layer1" />
  <defs
     id="defs1" />
  <g
     inkscape:label="Layer 1"
     inkscape:groupmode="layer"
     id="layer1">
    <a
       id="a1">
      <g
         id="g2"
         transform="matrix(0.04002457,0,0,0.04002457,14.95985,11.535853)"
         style="clip-rule:evenodd;fill-rule:evenodd;image-rendering:optimizeQuality;shape-rendering:geometricPrecision;text-rendering:geometricPrecision">
        <circle
           class="fil0"
           cx="2206.3401"
           cy="1928.33"
           r="1928.33"
           id="circle1"
           style="fill:#fefefe" />
        <path
           class="fil1"
           d="m 414.31,1215.07 c 25.91,-65.06 55.33,-128.34 87.9,-189.7 h 697.76 c -45.91,64.39 -85.88,131.15 -117.15,201.38 h -48.39 C 841.36,1081.1 617.39,1114.82 414.31,1215.07 Z"
           id="path1"
           style="fill:#0048cc" />
        <path
           class="fil1"
           d="m 2206.34,0 c 382.36,0 738.72,111.3 1038.47,303.24 l -2078.62,1.08 C 1466.29,111.71 1823.27,0 2206.34,0 Z"
           id="path2"
           style="fill:#0048cc" />
        <path
           class="fil1"
           d="m 3571.46,566.43 c 81.17,81.35 155,169.97 220.68,264.7 H 2180.8 c -248.24,-112.93 -500.87,-109.65 -738.1,0 l -821.41,-1.07 c 66.5,-95.8 141.37,-185.31 223.7,-267.39 z"
           id="path3"
           style="fill:#0048cc" />
        <path
           class="fil1"
           d="m 3910.61,1025.64 c 33.52,63.15 63.73,128.31 90.2,195.38 l -888.69,2.96 C 2934.4,1102.87 2739.86,1107.17 2574.6,1223.7 l -31.89,0.01 c -31.77,-68.31 -69.76,-135.07 -117.67,-197.53 l 1485.57,-0.55 z"
           id="path4"
           style="fill:#0048cc" />
        <path
           class="fil1"
           d="m 4046.28,1349.67 c 14.93,47.52 28.11,95.81 39.38,144.84 l -356.32,1.57 c -145.99,-88.51 -294.08,-106.06 -430,-11 h -7.15 c -9.55,-48.59 -28.62,-94.81 -61.59,-137.57 z"
           id="path5"
           style="fill:#0048cc" />
        <path
           class="fil1"
           d="m 4098.2,1553.83 c 5.32,27 10.16,54.16 14.35,81.55 l -294.11,1.28 c -4.69,-31.35 -17.33,-59.35 -39.62,-83.35 l 319.38,0.53 z"
           id="path6"
           style="fill:#0048cc" />
        <path
           class="fil2"
           d="m 4134.35,1903.24 c 0.11,8.35 0.31,16.7 0.31,25.08 0,13.69 -0.24,27.33 -0.52,40.96 l -3855.61,0.28 c -0.28,-13.72 -0.52,-27.45 -0.52,-41.23 0,-8.2 0.2,-16.35 0.31,-24.52 l 3856.02,-0.56 z"
           id="path7"
           style="fill:#656565" />
        <g
           id="g11">
    <path
   class="fil3"
   d="m 316.1,2311.22 c -5.65,-28.06 -10.71,-56.32 -15.13,-84.8 l 927.57,-1.29 c 33.25,24.69 58.82,49.15 76.97,86.09 H 316.09 Z"
   id="path8"
   style="fill:#319900" />

    <path
   class="fil3"
   d="m 4050.22,2494.18 c -7.95,25.93 -16.47,51.61 -25.48,77.06 l -2460.78,1.09 c -16.81,-18.94 -33.06,-38.46 -48.39,-58.86 l -1147.15,-0.28 c -15.63,-49.16 -29.44,-99.15 -41.15,-149.94 h 1045.88 l 122.07,129.85 2555,1.09 z"
   id="path9"
   style="fill:#319900" />

    <path
   class="fil3"
   d="m 3999.03,2640.01 c -18.59,46.79 -39.02,92.63 -61.08,137.55 l -2149.93,-1.09 50.6,60.52 -1333.96,-1.08 c -33.92,-63.46 -64.44,-129.01 -91.21,-196.45 z"
   id="path10"
   style="fill:#319900" />

    <path
   class="fil3"
   d="m 3869.76,2904.11 c -40.1,68.22 -84.29,133.75 -132.2,196.26 l -1628.68,6.78 199.89,197.25 1247.43,0.81 c -102.27,100.29 -215.66,189.25 -338.16,264.91 l -645.06,-0.79 203.91,201.46 c -180.29,55.79 -371.91,85.84 -570.54,85.84 -379,0 -732.45,-109.4 -1030.52,-298.27 l 1377.34,1.61 -244.41,-255.58 -1461.1,-7.81 C 765.47,3214.95 690.62,3125.94 624.12,3030.66 l 1401.17,0.54 -128.11,-128.2 1972.57,1.09 z"
   id="path11"
   style="fill:#319900" />

   </g>
      </g>
      <path
         class="fil4"
         d="m 53.50815,176.53165 h 9.754344 c 1.936238,0 3.372215,0.0853 4.320848,0.24415 0.953929,0.16837 1.799734,0.51176 2.548906,1.02963 0.749954,0.52271 1.3742,1.21526 1.873869,2.08291 0.499529,0.8672 0.749939,1.84446 0.749939,2.92095 0,1.16398 -0.306544,2.24052 -0.919717,3.21212 -0.61312,0.97711 -1.44818,1.70516 -2.498464,2.194 1.482291,0.4482 2.617575,1.20426 3.417797,2.27493 0.795137,1.07113 1.192078,2.32769 1.192078,3.7765 0,1.14078 -0.255267,2.24637 -0.771911,3.3229 -0.516645,1.07605 -1.221399,1.93799 -2.118026,2.58397 -0.891579,0.63999 -1.992684,1.03572 -3.304554,1.18719 -0.817109,0.0854 -2.798929,0.14539 -5.938718,0.16837 h -8.306496 z m 4.93987,4.15502 v 5.76101 h 3.224462 c 1.914158,0 3.105854,-0.023 3.571327,-0.0854 0.840303,-0.0975 1.505204,-0.39572 1.987408,-0.8904 0.482484,-0.49465 0.721855,-1.14076 0.721855,-1.9437 0,-0.77435 -0.210103,-1.39629 -0.625326,-1.87932 -0.414058,-0.48366 -1.033305,-0.77437 -1.851252,-0.87331 -0.48856,-0.0613 -1.889975,-0.0854 -4.200833,-0.0854 h -2.827519 z m 0,9.91542 v 6.70366 h 4.564571 c 1.771597,0 2.901518,-0.049 3.378567,-0.15148 0.732824,-0.13928 1.32862,-0.47144 1.788242,-1.00153 0.459239,-0.53496 0.692533,-1.23932 0.692533,-2.12962 0,-0.75604 -0.176046,-1.39101 -0.533742,-1.91449 -0.351707,-0.52401 -0.868439,-0.90752 -1.538355,-1.1469 -0.670524,-0.23802 -2.129118,-0.36165 -4.371828,-0.36165 h -3.980215 z m 19.593797,10.92819 v -24.99863 h 7.397541 l 4.372212,17.04976 4.320739,-17.04976 h 7.414911 v 24.99863 h -4.565046 l -0.01174,-19.68012 -4.80884,19.68012 h -4.746428 l -4.786369,-19.68012 -0.01181,19.68012 h -4.564635 z m 28.513443,0 v -24.99863 h 4.93988 v 11.07364 l 9.95304,-11.07364 h 6.62016 l -9.20414,9.73538 9.68105,15.26325 h -6.37061 l -6.71085,-11.737 -3.96865,4.178 v 7.559 z m 35.87751,-9.18235 v -4.22502 h 10.59474 v 9.97383 c -1.02717,1.02965 -2.52104,1.93225 -4.47979,2.71746 -1.95335,0.78045 -3.93517,1.17008 -5.94494,1.17008 -2.54893,0 -4.76914,-0.5472 -6.66534,-1.64681 -1.8907,-1.10043 -3.31569,-2.67687 -4.27008,-4.71955 -0.95391,-2.04235 -1.4304,-4.27091 -1.4304,-6.67424 0,-2.60693 0.53378,-4.92288 1.59556,-6.95395 1.06745,-2.02501 2.62312,-3.58462 4.67252,-4.66662 1.567,-0.83175 3.5089,-1.24546 5.83662,-1.24546 3.02619,0 5.39408,0.65222 7.09707,1.95556 1.6976,1.3093 2.79352,3.10719 3.28163,5.41143 l -4.90548,0.94296 c -0.34059,-1.22787 -0.9881,-2.19986 -1.93612,-2.9157 -0.94167,-0.70964 -2.1236,-1.06507 -3.54297,-1.06507 -2.14599,0 -3.85506,0.69742 -5.12116,2.10065 -1.26594,1.40216 -1.9019,3.47972 -1.9019,6.23222 0,2.97322 0.6412,5.20213 1.92441,6.68575 1.28939,1.48397 2.96966,2.2289 5.05357,2.2289 1.02718,0 2.06097,-0.2101 3.09436,-0.6229 1.03821,-0.41284 1.92441,-0.9197 2.66823,-1.5127 v -3.17144 h -5.62079 z"
         id="path12"
         style="clip-rule:evenodd;fill:#f2f2f2;fill-rule:nonzero;stroke-width:0.0225535;image-rendering:optimizeQuality;shape-rendering:geometricPrecision;text-rendering:geometricPrecision" />
    </a>
  </g>
</svg>
